<?xml version="1.0" encoding="UTF-8"?>
<svg id="Layer_1" data-name="Layer 1" xmlns="http://www.w3.org/2000/svg" viewBox="0 0 1080 1080">
  <defs>
    <style>
      .cls-1 {
        fill: #ff0a7a;
      }
    </style>
  </defs>
  <g>
    <path class="cls-1" d="m946.97,566.71l37.79-19.49,19.96-147.53c0-38.36-31.09-69.45-69.45-69.45h-133.05l6.23-46.15c.43-3.19.22-6.32-.49-9.27-.51-3.37-1.53-6.61-3.25-9.23-4.51-6.82-12.77-10.64-21.58-10.68-.48,0-.96,0-1.44,0-1.37,0-2.75-.01-4.12-.02-2.17,0-4.34-.02-6.51-.03-2.87-.01-5.74-.02-8.6-.03-3.47-.01-6.94-.03-10.41-.04-3.97-.02-7.95-.03-11.92-.05-4.38-.02-8.76-.04-13.14-.05-4.69-.02-9.38-.04-14.07-.06-4.9-.02-9.81-.04-14.71-.06-5.02-.02-10.04-.04-15.06-.06-5.04-.02-10.08-.04-15.12-.06-4.96-.02-9.92-.04-14.88-.06-4.78-.02-9.57-.04-14.35-.06-4.51-.02-9.02-.04-13.53-.05-4.14-.02-8.28-.03-12.42-.05-3.67-.01-7.35-.03-11.02-.04-3.11-.01-6.22-.03-9.32-.04l-7.34-.03c-1.69,0-3.37-.01-5.06-.02-4.32-.02-8.6.57-12.9,1.11-2.43.31-4.87.62-7.24,1.25-7.14,1.89-13.19,7.48-16.09,14.22-.91,2.12-1.53,4.36-1.84,6.65l-7.15,52.92h-216.6v.21h-20.09c-13.98,0-25.31,11.33-25.31,25.31,0,12.97,9.76,23.65,22.34,25.12.98.11,1.97.19,2.97.19h15.93c-1.63,5.88-2.53,12.07-2.54,18.47,0,.1-.01.19-.02.29l-4.26,31.48h-1.1c-1.01,0-2,.08-2.97.19h-64.74l-45.17-.19c-13.98,0-25.31,11.33-25.31,25.31,0,12.97,9.76,23.65,22.34,25.12.98.11,1.97.19,2.97.19h42.19c1.01,0,2-.08,2.97-.19h62l-6.82,50.43h-86.08c-13.98,0-25.31,11.33-25.31,25.31,0,12.97,9.76,23.65,22.34,25.12.98.11,1.97.19,2.97.19h46.96c5.01.59,9.56,2.66,13.24,5.73,5.55,4.64,9.09,11.59,9.09,19.39s-3.54,14.77-9.09,19.41c-1.78,1.49-3.77,2.74-5.91,3.7h-84.86c-3.67,0-7.15.8-10.31,2.21-8.84,3.95-15.01,12.8-15.01,23.1,0,12.97,9.76,23.65,22.34,25.12.98.11,1.97.19,2.97.19h96.43l-4.26,31.49c0,.14-.02.28-.03.42.02,6.4.92,12.59,2.56,18.48-.28.03-.57.02-.85.05h.22c-1.13.13-2.23.36-3.3.64v-.06c-11.05,2.72-19.26,12.65-19.26,24.54s8.21,21.84,19.26,24.55v.36h1.72c1.41.24,2.86.4,4.34.4h58.78c1.97.17,3.96.27,5.98.27h194.62c.01-.09.03-.18.04-.27.02-.13.03-.27.06-.4.57-2.52,2.2-4.78,4.68-6.05l30.28-15.5,15.67-8.02c4.43-2.27,9.86-.51,12.12,3.92.67,1.31.95,2.72.95,4.11,0,3.26-1.75,6.43-4.86,8.02l-27.75,14.21h45.42l28.08-22.22,15.99-12.66c3.91-3.09,9.58-2.43,12.66,1.47,2.65,3.36,2.51,7.99-.02,11.18-.42.53-.9,1.04-1.45,1.48l-26.21,20.74h21.33l11.68-13.73c3.22-3.79,8.91-4.25,12.71-1.02,3.79,3.22,4.26,8.91,1.02,12.71l-1.74,2.04h13.37c2.59-1.39,5.79-1.5,8.55,0h125.27c.61-.7,1.3-1.34,2.13-1.85,3.82-2.29,8.63-1.41,11.45,1.85h9.27c-1.59-3.6-.7-7.94,2.47-10.56,3.84-3.17,9.52-2.63,12.69,1.2l7.73,9.35h16.01c1.04,0,2.06-.02,3.07-.04l-19.91-16.23c-2.43-1.98-3.55-4.97-3.26-7.88.17-1.7.81-3.37,1.97-4.8,3.15-3.85,8.82-4.43,12.68-1.29l.57.47,31.84,25.96c6.04-2.05,11.44-4.99,16.24-9.03l-39.57-22.06-7.04-3.93c-2.17-1.21-3.65-3.19-4.28-5.41-.63-2.22-.41-4.68.8-6.85,2.42-4.35,7.92-5.91,12.26-3.48l12.12,6.76,37.49,20.9c4.28-7.08,7.84-15.82,10.77-26.44.05-.36.07-.71.16-1.07.13-.5.31-.97.52-1.43,1.1-4.24,2.11-8.75,3.02-13.59l2.25-16.64-38.69-2.53-14.43-.94c-4.97-.33-8.73-4.62-8.4-9.59.08-1.22.4-2.37.91-3.39,1.57-3.18,4.93-5.25,8.68-5.01l15.34,1,39.03,2.55,2.58-19.08-39.85,3.57-17.71,1.58c-4.36.35-8.25-2.46-9.4-6.51-.16-.56-.26-1.15-.31-1.75-.4-4.96,3.29-9.31,8.25-9.71l21.64-1.94,39.85-3.57,3.11-22.96-40.94,11.63-25.39,7.21c-4.79,1.36-9.77-1.42-11.13-6.21-1.36-4.79,1.42-9.77,6.2-11.13l32.95-9.36,40.94-11.63,4.05-29.94-26.63,13.73c-4.43,2.27-9.86.52-12.13-3.92-.27-.53-.5-1.09-.66-1.65-1.15-4.05.67-8.48,4.57-10.47Zm-297.53-136.11c4.43-2.27,9.86-.51,12.12,3.92l4.76,9.75c2.23,4.39.52,9.86-3.92,12.12-4.43,2.27-9.86.51-12.13-3.92l-4.76-9.75c-.27-.53-.5-1.09-.66-1.65-1.15-4.05.68-8.48,4.57-10.47Zm-78.44,67.03c3.22-3.79,8.91-4.25,12.71-1.02l41.28,35.12c3.78,3.22,4.25,8.91,1.02,12.71-3.22,3.79-8.91,4.25-12.71,1.02l-41.28-35.12c-1.41-1.2-2.35-2.74-2.82-4.4-.79-2.79-.23-5.93,1.81-8.31Zm59.97,144.31c4.93.58,8.48,5.03,7.91,10-.58,4.94-5.05,8.48-10,7.91l-69.3-8.07c-3.73-.43-6.66-3.09-7.63-6.49-.31-1.1-.42-2.29-.28-3.5.58-4.94,5.05-8.48,9.99-7.91l69.3,8.07Zm-40.41-32.73c1.53-4.74,6.61-7.34,11.34-5.81l36.69,11.84c4.75,1.53,7.35,6.61,5.81,11.34-1.53,4.74-6.61,7.34-11.34,5.81l-36.69-11.84c-2.98-.96-5.11-3.33-5.91-6.12-.47-1.66-.48-3.46.09-5.22Zm-79.16,141.25c-4.8,1.33-9.76-1.47-11.1-6.27-.33-1.18-.41-2.37-.27-3.5.43-3.51,2.92-6.59,6.54-7.6l27.91-7.76c4.8-1.33,9.76,1.48,11.1,6.27,1.32,4.81-1.48,9.77-6.27,11.1l-27.91,7.76Zm9.6-40.19h.79c12.84,0,23.43,9.56,25.09,21.94-1.74-12.5-12.92-21.94-25.88-21.94Zm14.77-15.07c-4.36.35-8.25-2.46-9.4-6.51-.16-.56-.26-1.15-.31-1.75-.4-4.96,3.29-9.31,8.25-9.71l94.41-7.61c4.96-.4,9.3,3.37,9.71,8.26.4,4.96-3.29,9.31-8.26,9.71l-94.41,7.61Zm39.74-90.85c-1.53,4.74-6.61,7.34-11.34,5.81l-44.29-14.3c-2.98-.96-5.11-3.33-5.9-6.12-.47-1.66-.48-3.46.1-5.22,1.52-4.74,6.61-7.34,11.34-5.81l44.29,14.31c4.74,1.53,7.34,6.61,5.81,11.34Zm-72.71-249.05c0,.08,0,.16,0,.23,0,.08.01.16.01.24,0,.38-.04.75-.06,1.12.02-.45.05-.9.04-1.36,0-.4-.04-.8-.06-1.2.02.32.06.64.07.96Zm-25.31-24.84c12.75,0,23.26,9.43,25.02,21.69-1.84-12.39-12.99-21.69-25.86-21.69h.84Zm69.6,406.21c.02-.4.04-.8.04-1.2,0-.39-.04-.77-.06-1.16.02.33.06.65.06.98,0,.06,0,.11,0,.17,0,.05,0,.1,0,.15,0,.35-.03.7-.05,1.05Zm17.53-1.6c-4.79,1.36-9.77-1.42-11.13-6.21-1.36-4.79,1.42-9.77,6.21-11.13l72.22-20.52c4.79-1.36,9.77,1.42,11.13,6.21s-1.42,9.77-6.21,11.13l-72.22,20.52Zm84.01,4.62l-30.53,15.62c-4.43,2.27-9.86.52-12.12-3.92-.27-.53-.5-1.09-.66-1.65-1.15-4.05.68-8.48,4.57-10.47l30.53-15.63c4.43-2.27,9.86-.51,12.13,3.92,2.24,4.41.52,9.86-3.92,12.13Zm6.14-136.88c-2.42,4.35-7.92,5.91-12.26,3.48l-75.52-42.11c-2.17-1.21-3.65-3.19-4.28-5.41-.63-2.22-.41-4.68.79-6.85,2.42-4.35,7.92-5.91,12.26-3.48l75.52,42.11c4.34,2.43,5.9,7.91,3.48,12.26Zm14.79-21.31c-3.22,3.78-8.91,4.25-12.7,1.02l-16.86-14.34c-1.41-1.2-2.35-2.74-2.82-4.4-.79-2.79-.22-5.93,1.8-8.31,3.22-3.79,8.91-4.25,12.71-1.02l16.85,14.34c3.79,3.22,4.26,8.91,1.02,12.71Zm18.66-18.04c-3.91,3.09-9.57,2.43-12.66-1.47l-64.23-81.15c-.76-.96-1.29-2.02-1.61-3.13-.97-3.41.13-7.21,3.08-9.54,3.91-3.09,9.57-2.43,12.66,1.47l64.23,81.15c3.09,3.92,2.42,9.58-1.47,12.66Zm21.83-14.02c-4.43,2.27-9.86.51-12.12-3.92l-32.1-62.7c-.27-.53-.5-1.09-.66-1.65-1.15-4.05.68-8.48,4.57-10.47,4.43-2.27,9.86-.51,12.13,3.92l32.1,62.7c2.25,4.39.52,9.86-3.92,12.13Zm22.42-10.94c-4.86,1.05-9.66-2.03-10.73-6.89l-17.3-79.3c-1.06-4.86,2.03-9.67,6.89-10.73,2.43-.53,4.85-.02,6.79,1.22,1.94,1.24,3.41,3.23,3.94,5.66l17.3,79.3c1.06,4.86-2.02,9.67-6.89,10.73Zm10.92-93.73l-1.18-14.62-2.71-33.59c-.4-4.96,3.29-9.31,8.26-9.7,2.76-.22,5.29.85,7.09,2.68,1.44,1.46,2.42,3.38,2.61,5.58l3.89,48.21c.4,4.96-3.29,9.31-8.26,9.71-4.36.35-8.24-2.46-9.4-6.51-.16-.56-.26-1.14-.31-1.75Zm16.34,90.56c-4.36.35-8.24-2.46-9.4-6.51-.16-.56-.26-1.14-.31-1.75l-4.01-49.67c-.4-4.96,3.29-9.3,8.25-9.71,4.97-.4,9.29,3.28,9.71,8.26l4.01,49.67c.4,4.96-3.29,9.31-8.26,9.71Zm108.93-62.89l11.36-20.37c2.42-4.35,7.92-5.91,12.26-3.48,4.34,2.43,5.9,7.91,3.48,12.26l-11.36,20.37c-2.42,4.35-7.92,5.91-12.26,3.48-2.17-1.21-3.65-3.19-4.28-5.41-.63-2.22-.41-4.68.8-6.85Zm-45.25,1.17l18.43-58.03c1.53-4.74,6.61-7.34,11.34-5.81,4.74,1.53,7.34,6.62,5.81,11.34l-18.44,58.03c-1.53,4.73-6.61,7.33-11.34,5.8-2.98-.95-5.11-3.32-5.9-6.12-.47-1.66-.48-3.46.1-5.22Zm-37.74,62.18c-3.73-.43-6.66-3.09-7.63-6.49-.31-1.1-.42-2.29-.28-3.5l11.65-100.02c.58-4.94,5.05-8.48,10-7.91,4.93.58,8.47,5.04,7.91,10l-11.65,100.02c-.58,4.94-5.05,8.48-10,7.91Zm36.7-.28c-1.53,4.74-6.61,7.34-11.34,5.81-2.98-.96-5.11-3.33-5.9-6.12-.47-1.66-.48-3.46.1-5.22l8.66-26.83c1.53-4.74,6.61-7.34,11.34-5.81,4.74,1.54,7.34,6.61,5.81,11.35l-8.66,26.83Zm12.44,16.16c-2.17-1.21-3.65-3.19-4.28-5.41-.63-2.22-.41-4.68.8-6.85l20.7-37.13c2.42-4.34,7.91-5.9,12.26-3.48,4.34,2.43,5.9,7.91,3.48,12.26l-20.7,37.13c-2.42,4.35-7.91,5.91-12.26,3.48Zm34.02,13.77c-3.22,3.79-8.91,4.25-12.71,1.02-1.41-1.2-2.35-2.74-2.82-4.39-.79-2.79-.22-5.93,1.8-8.31l45.69-54.21c3.22-3.79,8.91-4.25,12.71-1.02,3.78,3.22,4.25,8.91,1.02,12.71l-45.69,54.21Zm17.99,21.16c-3.91,3.09-9.58,2.43-12.66-1.47-.76-.96-1.29-2.02-1.61-3.13-.97-3.41.13-7.21,3.08-9.54l31.1-24.61c3.91-3.09,9.57-2.43,12.66,1.47,3.09,3.92,2.42,9.58-1.47,12.66l-31.1,24.61Zm20.84,115.51l16.35,5.28,24.18,7.8c4.75,1.53,7.33,6.61,5.81,11.34-1.53,4.74-6.61,7.34-11.34,5.81l-25.1-8.1-15.43-4.98c-2.98-.96-5.11-3.32-5.9-6.12-.47-1.66-.47-3.46.09-5.22,1.53-4.74,6.61-7.34,11.35-5.81Zm18.61-104.54l-25.97,13.29c-4.43,2.27-9.86.51-12.12-3.92-.28-.53-.5-1.09-.66-1.65-1.15-4.05.67-8.48,4.57-10.48l25.97-13.29c4.43-2.27,9.86-.51,12.12,3.92,2.27,4.39.52,9.86-3.92,12.13Zm6.04-58.47c-.76-.96-1.29-2.02-1.61-3.13-.97-3.41.13-7.21,3.08-9.54l16.17-12.8,6.55-5.18c3.91-3.09,9.57-2.43,12.66,1.47,3.09,3.92,2.43,9.58-1.47,12.66l-21.22,16.79-1.5,1.19c-3.91,3.09-9.57,2.43-12.66-1.47Z"/>
    <path class="cls-1" d="m271.35,782.79h1.72c-.58-.1-1.15-.22-1.72-.36v.36Z"/>
    <path class="cls-1" d="m206.11,732.08c-.98-.11-1.97-.19-2.98-.19h-78.59c-1.01,0-2,.08-2.97.19-12.58,1.47-22.34,12.15-22.34,25.12,0,13.98,11.34,25.31,25.31,25.31h78.59c13.98,0,25.31-11.33,25.31-25.31,0-12.97-9.76-23.64-22.34-25.12Z"/>
    <path class="cls-1" d="m98.57,628.95h2.02c13.36,0,24.21,10.85,24.21,24.21v2.02c0,13.36-10.85,24.21-24.21,24.21h-2.02c-13.36,0-24.21-10.85-24.21-24.21v-2.02c0-13.36,10.85-24.21,24.21-24.21Z"/>
    <path class="cls-1" d="m233.72,330.25h2.02c13.36,0,24.21,10.85,24.21,24.21v2.02c0,13.36-10.85,24.21-24.21,24.21h-2.02c-13.36,0-24.21-10.85-24.21-24.21v-2.02c0-13.36,10.85-24.21,24.21-24.21Z"/>
  </g>
  <path class="cls-1" d="m592.91,331.55c45.18-.52,90.38-.54,135.56-.56,16.43,0,32.86.01,49.28.05l4.55-33.66c.34-2.52.17-4.98-.38-7.31-.4-2.66-1.2-5.22-2.57-7.28-3.55-5.38-10.07-8.39-17.02-8.42-.38,0-.76,0-1.14,0-1.08,0-2.17,0-3.25-.01-1.71,0-3.42-.01-5.13-.02-2.26,0-4.52-.02-6.79-.03-2.74-.01-5.47-.02-8.21-.03-3.13-.01-6.27-.03-9.4-.04-3.45-.01-6.91-.03-10.37-.04-3.7-.01-7.4-.03-11.1-.04-3.87-.02-7.74-.03-11.6-.05-3.96-.02-7.92-.03-11.88-.05l-11.92-.05c-3.91-.02-7.82-.03-11.73-.05-3.77-.02-7.55-.03-11.32-.05-3.56-.01-7.12-.03-10.67-.04-3.27-.01-6.53-.03-9.8-.04-2.9-.01-5.79-.02-8.69-.03-2.45,0-4.9-.02-7.35-.03-1.93,0-3.86-.02-5.79-.02-1.33,0-2.66-.01-3.99-.02-3.41-.01-6.78.45-10.17.88-1.92.24-3.84.49-5.71.98-5.63,1.49-10.4,5.9-12.69,11.21-.72,1.67-1.21,3.44-1.45,5.25l-5.3,39.22c9.21.09,17.6.2,24.99.32.42-.01.78-.02,1.03-.02Z"/>
</svg>